<?xml version="1.0" encoding="UTF-8"?>
<svg width="35px" height="36px" viewBox="0 0 35 36" version="1.1" xmlns="http://www.w3.org/2000/svg" xmlns:xlink="http://www.w3.org/1999/xlink">
    <!-- Generator: sketchtool 51.3 (57544) - http://www.bohemiancoding.com/sketch -->
    <title>9A32C890-71CE-4F0E-8182-EA3E75AC3C94</title>
    <desc>Created with sketchtool.</desc>
    <defs></defs>
    <g id="Page-1" stroke="none" stroke-width="1" fill="none" fill-rule="evenodd">
        <g id="Kear---Medical-Landing-Page" transform="translate(-1343.000000, -1578.000000)" fill="#0070CD" fill-rule="nonzero">
            <g id="Our-Speciality" transform="translate(0.000000, 900.000000)">
                <g id="Content" transform="translate(375.000000, 255.000000)">
                    <g id="6" transform="translate(800.000000, 351.000000)">
                        <g id="Icon" transform="translate(145.000000, 50.000000)">
                            <g id="Shape" transform="translate(23.000000, 22.000000)">
                                <g id="Group">
                                    <path d="M0.729195542,35.7348633 C0.544055531,35.7348633 0.358915594,35.6650798 0.216500229,35.5240885 C-0.0697546354,35.2413941 -0.0726029792,34.7792562 0.210447562,34.4930013 L5.41216842,29.2300415 C5.69557501,28.9444987 6.15664474,28.9402263 6.44361171,29.2243449 C6.72986657,29.5070394 6.73271492,29.9691773 6.44966437,30.2554322 L1.24794352,35.5183919 C1.1051721,35.6622314 0.917183823,35.7348633 0.729195542,35.7348633 Z" id="Shape"></path>
                                    <path d="M26.4340997,6.71844483 C26.2254612,6.71844483 26.0186029,6.62943524 25.8744073,6.45711267 C25.6159234,6.14807134 25.6572239,5.6880697 25.9659092,5.4295858 L29.5280735,2.45096848 C29.837827,2.19319669 30.2967604,2.23449713 30.5552443,2.54282642 C30.8137282,2.85186774 30.7724278,3.31186939 30.4637425,3.57035328 L26.9015782,6.5489706 C26.7648593,6.66290282 26.5989455,6.71844483 26.4340997,6.71844483 Z" id="Shape"></path>
                                    <path d="M29.6149468,10.02889 C29.4251783,10.02889 29.2357659,9.95554613 29.0926385,9.80885828 C28.8117242,9.52046718 28.8177768,9.05832929 29.1061679,8.77777104 L32.4839043,5.48583992 C32.7722954,5.20528167 33.2333652,5.21026618 33.5149916,5.49865728 C33.7959059,5.78704839 33.7898532,6.24918627 33.5014621,6.52974452 L30.1237257,9.82167565 C29.9820224,9.95981853 29.7983066,10.02889 29.6149468,10.02889 Z" id="Shape"></path>
                                    <path d="M34.2708611,8.01513672 C34.084297,8.01513672 33.8977328,7.943929 33.7553175,7.80151364 L27.9219841,1.9681803 C27.6371534,1.68334957 27.6371534,1.22192379 27.9219841,0.937093062 C28.2068149,0.652262333 28.6682406,0.652262333 28.9530714,0.937093062 L34.7864047,6.7704264 C35.0712354,7.05525712 35.0712354,7.51668291 34.7864047,7.80151364 C34.6439894,7.94392907 34.4574253,8.01513672 34.2708611,8.01513672 Z" id="Shape"></path>
                                    <path d="M5.25835982,30.4647827 L7.76949877,21.7660522 L20.7620518,8.77421059 C21.0468825,8.48937986 21.5083083,8.48937986 21.793139,8.77421059 C22.0779697,9.05904132 22.0779697,9.5204671 21.793139,9.80529783 L9.06619131,22.5315348 L7.39245405,28.3314006 L13.1912524,26.6565959 L25.9182,13.9303589 C26.2030307,13.6455282 26.6644565,13.6455282 26.9492872,13.9303589 C27.234118,14.2151896 27.234118,14.6766154 26.9492872,14.9614461 L13.956735,27.9539999 L5.25835982,30.4647827 Z" id="Shape"></path>
                                    <path d="M15.532561,26.0755412 C15.3459968,26.0755412 15.1594327,26.0043335 15.0170173,25.8619181 L12.9544868,23.7997436 C12.6696561,23.5149129 12.6696561,23.0534871 12.9544868,22.7686564 C13.2393175,22.4838257 13.7007433,22.4838257 13.985574,22.7686564 L16.0481046,24.8308309 C16.3329353,25.1156616 16.3329353,25.5770874 16.0481046,25.8619181 C15.9056892,26.0043335 15.719125,26.0755412 15.532561,26.0755412 Z" id="Shape"></path>
                                    <path d="M18.6261787,22.9822795 C18.4396145,22.9822795 18.2530504,22.9110718 18.110635,22.7686564 L15.5325609,20.1909383 C15.2477302,19.9061075 15.2477302,19.4446817 15.5325609,19.159851 C15.8173916,18.8750203 16.2788174,18.8750203 16.5636481,19.159851 L19.1417222,21.7375691 C19.426553,22.0223999 19.426553,22.4838257 19.1417222,22.7686564 C18.999307,22.9110718 18.8127428,22.9822795 18.6261787,22.9822795 Z" id="Shape"></path>
                                    <path d="M21.7197951,19.8890178 C21.5332309,19.8890178 21.3466668,19.81781 21.2042514,19.6753947 L19.1417223,17.6125081 C18.8568915,17.3276774 18.8568915,16.8662516 19.1417223,16.5814208 C19.426553,16.2965901 19.8879788,16.2965901 20.1728095,16.5814208 L22.2353386,18.6443074 C22.5201694,18.9291382 22.5201694,19.3905639 22.2353386,19.6753947 C22.0929233,19.81781 21.9063592,19.8890178 21.7197951,19.8890178 Z" id="Shape"></path>
                                </g>
                                <path d="M23.8556695,11.3868204 C22.9217807,11.3868204 21.988604,11.0314941 21.2775954,10.3208414 C19.8562914,8.89953604 19.8562914,6.58599849 21.2775954,5.16469311 C22.6992567,3.74267571 25.0120822,3.74409984 26.4337437,5.16469311 C27.855049,6.58599849 27.855049,8.89953604 26.4337437,10.3208414 C25.723091,11.0314942 24.7892022,11.3868204 23.8556695,11.3868204 Z M23.8556695,5.55633546 C23.295265,5.55633546 22.7352166,5.76995854 22.3086826,6.19578043 C21.4559706,7.04884848 21.4559706,8.4366862 22.3086826,9.28975425 C23.1613946,10.1406861 24.5492323,10.1413982 25.4026564,9.28975425 C26.2553684,8.4366862 26.2553684,7.04884848 25.4026564,6.19578043 C24.9761224,5.76995847 24.4157179,5.55633546 23.8556695,5.55633546 Z"></path>
                                <path d="M27.9803745,15.5118815 C27.0468418,15.5118815 26.113309,15.1565552 25.4026563,14.4459025 C24.713722,13.7573242 24.3345411,12.8415934 24.3345411,11.8674723 C24.3345411,10.8933512 24.714078,9.97762041 25.4026563,9.28975418 C26.0912346,8.60117592 27.0066094,8.22163891 27.9803745,8.22163891 C28.9544956,8.22163891 29.8698703,8.60117584 30.5584486,9.28975418 C31.2470269,9.97833244 31.6262078,10.8933512 31.6262078,11.8674723 C31.6262078,12.8415934 31.2470269,13.7573242 30.5584486,14.4459025 C29.847796,15.1565552 28.9142632,15.5118815 27.9803745,15.5118815 Z M27.9803745,9.67997231 C27.3961155,9.67997231 26.8471042,9.9078369 26.4337436,10.3208415 C26.0203829,10.7338461 25.7928744,11.2835694 25.7928744,11.8674724 C25.7928744,12.4520874 26.0203829,13.0010987 26.4337436,13.4148153 C27.2868116,14.2671713 28.6742933,14.2671713 29.5273614,13.4148153 C29.9403659,13.0018107 30.1678745,12.4520874 30.1678745,11.8674724 C30.1678745,11.2828573 29.9403659,10.7338461 29.5273614,10.3208415 C29.1140008,9.9078369 28.5649895,9.67997231 27.9803745,9.67997231 Z"></path>
                            </g>
                        </g>
                    </g>
                </g>
            </g>
        </g>
    </g>
</svg>