<?xml version="1.0" encoding="UTF-8"?>
<svg width="40px" height="40px" viewBox="0 0 40 40" version="1.1" xmlns="http://www.w3.org/2000/svg" xmlns:xlink="http://www.w3.org/1999/xlink">
    <!-- Generator: sketchtool 51.3 (57544) - http://www.bohemiancoding.com/sketch -->
    <title>E698D8E6-649B-4D36-8558-DE90ED4CB95C</title>
    <desc>Created with sketchtool.</desc>
    <defs></defs>
    <g id="Page-1" stroke="none" stroke-width="1" fill="none" fill-rule="evenodd">
        <g id="Kear---Medical-Landing-Page" transform="translate(-375.000000, -2410.000000)" fill="#0070CD" fill-rule="nonzero">
            <g id="About-Us" transform="translate(0.000000, 1947.000000)">
                <g id="Content" transform="translate(375.000000, 333.000000)">
                    <g id="2" transform="translate(0.000000, 124.000000)">
                        <g id="Icon" transform="translate(0.000000, 6.000000)">
                            <path d="M39.1666667,40.0002034 L0.833333333,40.0002034 C0.37312825,40.0002034 0,39.6274821 0,39.1668701 L0,9.16687008 C0,8.83483883 0.196940083,8.53454583 0.501302083,8.40270992 L19.6675618,0.0693765833 C19.8799642,-0.0233968333 20.1204427,-0.0233968333 20.3320312,0.0693765833 L39.4991048,8.40270992 C39.8030599,8.53454592 40,8.83483883 40,9.16687008 L40,39.1668701 C40,39.6274821 39.6268717,40.0002034 39.1666667,40.0002034 Z M1.66666667,38.3335367 L38.3333333,38.3335367 L38.3333333,9.71293133 L20,1.74255375 L1.66666667,9.71293133 L1.66666667,38.3335367 Z" id="Shape"></path>
                            <path d="M15.8333333,40.0002034 L5.83333333,40.0002034 C5.37312825,40.0002034 5,39.6274821 5,39.1668701 L5,22.5002034 C5,22.0395914 5.37312825,21.6668701 5.83333333,21.6668701 L15.8333333,21.6668701 C16.2935384,21.6668701 16.6666667,22.0395914 16.6666667,22.5002034 L16.6666667,39.1668701 C16.6666667,39.6274821 16.2935384,40.0002034 15.8333333,40.0002034 Z M6.66666667,38.3335368 L15,38.3335368 L15,23.3335368 L6.66666667,23.3335368 L6.66666667,38.3335368 Z" id="Shape"></path>
                            <path d="M32.5,33.3335368 L22.5,33.3335368 C22.0397949,33.3335368 21.6666667,32.9608154 21.6666667,32.5002034 L21.6666667,22.5002034 C21.6666667,22.0395914 22.0397949,21.6668701 22.5,21.6668701 L32.5,21.6668701 C32.9602051,21.6668701 33.3333333,22.0395914 33.3333333,22.5002034 L33.3333333,32.5002034 C33.3333333,32.9608154 32.9602051,33.3335368 32.5,33.3335368 Z M23.3333333,31.6668701 L31.6666667,31.6668701 L31.6666667,23.3335368 L23.3333333,23.3335368 L23.3333333,31.6668701 Z" id="Shape"></path>
                            <path d="M19.1666667,15.8335367 C18.7064616,15.8335367 18.3333333,15.4608154 18.3333333,15.0002034 L18.3333333,6.66687008 C18.3333333,6.20625808 18.7064616,5.83353675 19.1666667,5.83353675 C19.6268717,5.83353675 20,6.20625808 20,6.66687008 L20,15.0002034 C20,15.4608154 19.6268717,15.8335367 19.1666667,15.8335367 Z" id="Shape"></path>
                            <path d="M23.3333333,11.6668701 L15,11.6668701 C14.5397949,11.6668701 14.1666667,11.2941488 14.1666667,10.8335368 C14.1666667,10.3729248 14.5397949,10.0002034 15,10.0002034 L23.3333333,10.0002034 C23.7935384,10.0002034 24.1666667,10.3729248 24.1666667,10.8335368 C24.1666667,11.2941488 23.7935384,11.6668701 23.3333333,11.6668701 Z" id="Shape"></path>
                        </g>
                    </g>
                </g>
            </g>
        </g>
    </g>
</svg>