<?xml version="1.0" encoding="UTF-8"?>
<svg width="60px" height="52px" viewBox="0 0 60 52" version="1.1" xmlns="http://www.w3.org/2000/svg" xmlns:xlink="http://www.w3.org/1999/xlink">
    <!-- Generator: sketchtool 51.3 (57544) - http://www.bohemiancoding.com/sketch -->
    <title>6D7144BE-921C-4E38-9DD3-5C66612779CD</title>
    <desc>Created with sketchtool.</desc>
    <defs></defs>
    <g id="Page-1" stroke="none" stroke-width="1" fill="none" fill-rule="evenodd" opacity="0.0299999993">
        <g id="Kear---Medical-Landing-Page" transform="translate(-405.000000, -2933.000000)" fill="#0070CD">
            <g id="Patients-Say" transform="translate(0.000000, 2638.000000)">
                <g id="Content" transform="translate(375.000000, 255.000000)">
                    <g id="1">
                        <g id="Icon" transform="translate(30.000000, 40.000000)">
                            <path d="M60,51.6806723 L37.0588235,51.6806723 C35.0420067,42.9411328 34.0336134,35.2101176 34.0336134,28.487395 C34.0336134,9.49570336 42.6049563,0 59.7478992,0 L59.7478992,11.092437 C51.6806319,11.092437 47.6470588,15.4621412 47.6470588,24.2016807 L47.6470588,30 L60,30 L60,51.6806723 Z M25.9663866,51.6806723 L3.02521008,51.6806723 C1.00839328,42.9411328 0,35.2101176 0,28.487395 C0,9.49570336 8.57134286,0 25.7142857,0 L25.7142857,11.092437 C17.6470185,11.092437 13.6134454,15.4621412 13.6134454,24.2016807 L13.6134454,30 L25.9663866,30 L25.9663866,51.6806723 Z" id="“"></path>
                        </g>
                    </g>
                </g>
            </g>
        </g>
    </g>
</svg>