<?xml version="1.0" encoding="UTF-8"?>
<svg width="35px" height="27px" viewBox="0 0 35 27" version="1.1" xmlns="http://www.w3.org/2000/svg" xmlns:xlink="http://www.w3.org/1999/xlink">
    <!-- Generator: sketchtool 51.3 (57544) - http://www.bohemiancoding.com/sketch -->
    <title>1D80584E-6119-46C6-838B-4C56ADFDC3C1</title>
    <desc>Created with sketchtool.</desc>
    <defs></defs>
    <g id="Page-1" stroke="none" stroke-width="1" fill="none" fill-rule="evenodd">
        <g id="Kear---Medical-Landing-Page" transform="translate(-1343.000000, -1232.000000)" fill="#0070CD" fill-rule="nonzero">
            <g id="Our-Speciality" transform="translate(0.000000, 900.000000)">
                <g id="Content" transform="translate(375.000000, 255.000000)">
                    <g id="3" transform="translate(800.000000, 0.000000)">
                        <g id="Icon" transform="translate(145.000000, 50.000000)">
                            <g id="Shape" transform="translate(23.000000, 27.000000)">
                                <path d="M32.8125,23.3970642 L29.7719319,23.3970642 C29.5579529,23.3970642 29.3546549,23.30307 29.216156,23.1400044 C29.0776571,22.9769388 29.0178426,22.7611795 29.0523783,22.5496927 C29.049886,21.337738 28.0686442,20.3564961 26.862386,20.3564961 C25.6561279,20.3564961 24.674886,21.337738 24.674886,22.5439961 C24.711202,22.756195 24.6510315,22.9733785 24.5125325,23.1378682 C24.3736775,23.3023579 24.1682433,23.3970642 23.9531962,23.3970642 L11.0468038,23.3970642 C10.8328247,23.3970642 10.6295268,23.30307 10.4910278,23.1400044 C10.3525289,22.9769388 10.2927144,22.7611795 10.3272501,22.5496927 C10.3247578,21.337738 9.343516,20.3564961 8.13725784,20.3564961 C6.93099969,20.3564961 5.94975784,21.337738 5.94975784,22.5439961 C5.98607377,22.756195 5.9259033,22.9733785 5.78740429,23.1378682 C5.6485493,23.3023579 5.44311513,23.3970642 5.22806798,23.3970642 L2.1875,23.3970642 C0.981241844,23.3970642 0,22.4158223 0,21.2095642 L0,5.16077676 C0,3.9545186 0.981241844,2.97327676 2.1875,2.97327676 L25.2726746,2.97327676 C25.4660034,2.97327676 25.6514995,3.05018109 25.7882182,3.18689984 L29.1178895,6.51799524 C30.9173076,8.31883755 32.542979,9.94593308 34.786021,12.1839905 C34.9230957,12.3207093 35,12.5065613 35,12.7002462 L35,21.2095643 C35,22.4158223 34.0187582,23.3970642 32.8125,23.3970642 Z M30.458018,21.9387308 L32.8125,21.9387308 C33.2144673,21.9387308 33.5416667,21.6118876 33.5416667,21.2095642 L33.5416667,13.0028788 C31.4079285,10.8730571 29.828542,9.29224647 28.0860901,7.5483703 L24.970398,4.43161002 L2.1875,4.43161002 C1.78553266,4.43161002 1.45833333,4.75845329 1.45833333,5.16077669 L1.45833333,21.2095641 C1.45833333,21.6118875 1.78553266,21.9387308 2.1875,21.9387308 L4.54162596,21.9387308 C4.83072917,20.2155048 6.33321128,18.8981627 8.13725784,18.8981627 C9.94130441,18.8981627 11.4437866,20.2155048 11.7328897,21.9387308 L23.2667541,21.9387308 C23.5558573,20.2155048 25.0583394,18.8981627 26.862386,18.8981627 C28.6664325,18.8981627 30.1689148,20.215505 30.458018,21.9387308 Z"></path>
                                <path d="M33.5427347,13.1851705 L24.0635681,13.1851705 C23.6608886,13.1851705 23.3344014,12.8590393 23.3344014,12.4560038 L23.3344014,3.7060038 C23.3344014,3.3029683 23.6608886,2.97683714 24.0635681,2.97683714 C24.4662475,2.97683714 24.7927348,3.3029683 24.7927348,3.7060038 L24.7927348,11.7268371 L33.5427347,11.7268371 C33.9454142,11.7268371 34.2719014,12.0529683 34.2719014,12.4560038 C34.2719014,12.8590393 33.9454142,13.1851705 33.5427347,13.1851705 Z"></path>
                                <path d="M8.13725792,26.1898295 C6.1843872,26.1898295 4.59467575,24.6759542 4.50103762,22.7355449 C4.49320477,22.671458 4.49142458,22.6123556 4.49142458,22.5439962 C4.49142458,20.5338034 6.12706507,18.8981629 8.13725792,18.8981629 C10.1474508,18.8981629 11.7830912,20.5338034 11.7830912,22.5439962 C11.7830912,22.6116435 11.7813111,22.6700338 11.7738343,22.7334086 C11.6812642,24.6745301 10.0908407,26.1898295 8.13725792,26.1898295 Z M8.13725792,20.3564962 C6.93099976,20.3564962 5.94975792,21.337738 5.94975792,22.5439962 C5.95509848,22.5760396 5.95545453,22.6080831 5.95687867,22.6408386 C6.0006714,23.8129171 6.95877073,24.7314962 8.13725792,24.7314962 C9.31610108,24.7314962 10.2742005,23.8129171 10.3179932,22.6408386 C10.3194174,22.6102193 10.3222657,22.5796 10.3272502,22.5496928 L10.3247579,22.5439962 C10.3247579,21.337738 9.343516,20.3564962 8.13725792,20.3564962 Z"></path>
                                <path d="M26.8623861,26.1898295 C24.9095154,26.1898295 23.3198039,24.6759542 23.2261658,22.7355449 C23.218333,22.671458 23.2165528,22.6123556 23.2165528,22.5439962 C23.2165528,20.5338034 24.8521933,18.8981629 26.8623861,18.8981629 C28.8725789,18.8981629 30.5082194,20.5338034 30.5082194,22.5439962 C30.5082194,22.6116435 30.5064393,22.6700338 30.4989624,22.7334086 C30.4063924,24.6745301 28.8159689,26.1898295 26.8623861,26.1898295 Z M26.8623861,20.3564962 C25.6561279,20.3564962 24.6748861,21.337738 24.6748861,22.5439962 C24.6802267,22.5760396 24.6805827,22.6080831 24.6820069,22.6408386 C24.7257996,23.8129171 25.6838989,24.7314962 26.8623861,24.7314962 C28.0412293,24.7314962 28.9993287,23.8129171 29.0431214,22.6408386 C29.0445455,22.6102193 29.0473939,22.5796 29.0523784,22.5496928 L29.0498861,22.5439962 C29.0498861,21.337738 28.0686442,20.3564962 26.8623861,20.3564962 Z"></path>
                                <path d="M13.1260681,16.1018371 C12.7233886,16.1018371 12.3969014,15.775706 12.3969014,15.3726705 L12.3969014,9.53933714 C12.3969014,9.13630164 12.7233886,8.81017047 13.1260681,8.81017047 C13.5287475,8.81017047 13.8552348,9.13630164 13.8552348,9.53933714 L13.8552348,15.3726705 C13.8552348,15.775706 13.5287475,16.1018371 13.1260681,16.1018371 Z"></path>
                                <path d="M16.0427347,13.1851705 L10.2094014,13.1851705 C9.80672197,13.1851705 9.48023475,12.8590393 9.48023475,12.4560038 C9.48023475,12.0529683 9.80672197,11.7268371 10.2094014,11.7268371 L16.0427347,11.7268371 C16.4454142,11.7268371 16.7719014,12.0529683 16.7719014,12.4560038 C16.7719014,12.8590393 16.4454142,13.1851705 16.0427347,13.1851705 Z"></path>
                                <path d="M21.1429851,4.43161009 L18.2302348,4.43161009 C17.8275554,4.43161009 17.5010682,4.10547893 17.5010682,3.70244343 L17.5010682,2.24624633 C17.5010682,1.04070028 18.4812419,0.0601704687 19.6864319,0.0601704687 C20.8916219,0.0601704687 21.8721517,1.04070028 21.8721517,2.24624633 L21.8721517,3.70244343 C21.8721517,4.10547893 21.5456644,4.43161009 21.1429851,4.43161009 Z M18.9594014,2.97327676 L20.4138183,2.97327676 L20.4138183,2.24624633 C20.4138183,1.84463497 20.0876872,1.5185038 19.6864318,1.5185038 C19.2855326,1.5185038 18.9594014,1.84463497 18.9594014,2.24624633 L18.9594014,2.97327676 Z"></path>
                            </g>
                        </g>
                    </g>
                </g>
            </g>
        </g>
    </g>
</svg>