<?xml version="1.0" encoding="UTF-8"?>
<svg width="38px" height="29px" viewBox="0 0 38 29" version="1.1" xmlns="http://www.w3.org/2000/svg" xmlns:xlink="http://www.w3.org/1999/xlink">
    <!-- Generator: sketchtool 51.3 (57544) - http://www.bohemiancoding.com/sketch -->
    <title>F228F334-5D18-43A4-8B04-D1DAAAEEAA95</title>
    <desc>Created with sketchtool.</desc>
    <defs></defs>
    <g id="Page-1" stroke="none" stroke-width="1" fill="none" fill-rule="evenodd">
        <g id="Kear---Medical-Landing-Page" transform="translate(-941.000000, -1231.000000)" fill="#0070CD" fill-rule="nonzero">
            <g id="Our-Speciality" transform="translate(0.000000, 900.000000)">
                <g id="Content" transform="translate(375.000000, 255.000000)">
                    <g id="2" transform="translate(400.000000, 0.000000)">
                        <g id="Icon" transform="translate(145.000000, 50.000000)">
                            <g id="Shape" transform="translate(21.000000, 26.000000)">
                                <path d="M19.1470836,28.2168199 C18.5382608,28.2168199 17.8987752,28.2013038 17.2293656,28.1665772 C15.0124083,28.0461426 12.5630787,27.9131474 9.48977968,26.8920392 C7.31309043,26.167215 5.24759996,25.1372405 3.35093964,23.8294536 C2.0834208,23.0543867 1.19309135,21.7916705 0.877597005,20.2962126 C0.561363616,18.7963214 0.86725291,17.2764811 1.73911084,16.0159814 C2.39706799,14.8411898 3.99042521,12.0150403 6.15344558,8.21728645 C8.46017466,4.16684084 9.73064892,1.93547577 11.9952629,1.03258563 C13.6451431,0.37425903 15.5307205,0.367609238 17.598797,1.01263633 L17.7783406,1.06878993 L20.1430704,3.44423322 L20.1430704,6.36939105 L19.2135813,7.29814139 L15.1967547,7.29814139 C14.1527418,8.26531255 12.4034846,10.7767066 11.6369146,12.4435807 C11.2298013,13.3368656 10.9560527,14.2789155 10.8186242,15.2593862 C12.1670485,14.2042903 14.3762477,12.9533959 17.2688948,12.9533959 C19.4629474,12.9533959 21.5228964,13.5866012 23.1646477,14.7510487 C24.569595,12.6763224 26.9084646,11.4202559 29.4619738,11.4202559 C31.6368159,11.4202559 33.7130198,12.3534394 35.1578657,13.9804149 C36.5997561,15.6036961 37.278032,17.7818631 37.0197995,19.9563358 C36.5495135,23.9469328 32.1392425,25.8310325 30.4790182,26.5403406 C29.0833067,27.1306918 27.8671389,27.3176241 25.4433,27.6885331 C24.0675378,27.8954147 21.9325957,28.2168199 19.1470836,28.2168199 Z M14.6710538,2.04852186 C13.9140891,2.04852186 13.207367,2.17782279 12.5553208,2.43790243 C10.8551979,3.11617833 9.76722266,4.92934721 7.46862108,8.96649324 C5.30707849,12.7612916 3.71519898,15.5844857 3.02029871,16.8176474 C2.35051975,17.7922072 2.12849156,18.8953291 2.35827781,19.9836737 C2.58695579,21.0683241 3.23235225,21.9837748 4.17551044,22.5615654 C5.98904877,23.8102432 7.92597713,24.7766756 9.96745447,25.4556903 C12.8479104,26.4125173 15.1893661,26.5403406 17.2555953,26.6526478 C20.8893217,26.8425355 23.5983601,26.436161 25.2160998,26.1923364 C27.5135931,25.8406377 28.6676965,25.6640496 29.8687177,25.1557121 C31.324277,24.5335898 35.1489994,22.8992257 35.516953,19.7790089 L35.516953,19.77827 C35.7278982,18.0072163 35.1985032,16.3048768 34.026667,14.9852682 C32.8684999,13.6811757 31.2045812,12.9334467 29.4619738,12.9334467 C27.1711303,12.9334467 25.0956652,14.1946852 24.0457414,16.2250796 L23.6024238,17.0828991 L22.8757524,16.4474772 C21.4364495,15.1884553 19.3927555,14.4665865 17.2688949,14.4665865 C13.6547484,14.4665865 11.2770885,16.7696213 10.634278,17.4752351 L10.4092943,17.7227541 L10.074959,17.7227541 C9.97927635,17.7227541 9.88211589,17.7101934 9.77793627,17.6843332 L9.21159804,17.5446881 L9.20273166,16.9617255 C9.17539375,15.1463401 9.53115607,13.4144461 10.2607829,11.8133308 C11.0897868,10.0112449 13.1390222,6.99594655 14.4420065,5.95119479 L14.6492575,5.78495067 L18.5866564,5.78495067 L18.6298798,5.74209666 L18.6298798,4.06783323 L16.9718721,2.40391458 C16.162448,2.16673987 15.3940309,2.04852186 14.6710538,2.04852186 Z"></path>
                                <path d="M16.805628,24.0222968 C16.6604415,24.0222968 16.5137772,24.0186025 16.364527,24.0119527 C12.8139227,23.8471864 10.5378564,21.7687658 9.7239992,20.8828695 L10.8382041,19.858806 C11.3742489,20.4425075 13.3621588,22.3576394 16.434719,22.5002398 C18.9110171,22.6258464 20.7219693,21.5641009 21.5897635,20.9279402 L22.4845247,22.1485412 C21.5081191,22.8644991 19.5094957,24.0222968 16.805628,24.0222968 Z"></path>
                                <path d="M24.4498992,19.9223482 C24.3778601,19.3918448 24.2470814,17.5365608 25.5862699,15.9642611 C27.360279,13.8806685 30.0744908,14.2449279 30.1890145,14.2641383 L29.9725278,15.7610739 C29.9518396,15.7581184 27.9768599,15.4913891 26.7381567,16.9454707 C25.8057121,18.0404651 25.8984393,19.3452965 25.9490514,19.7198998 L24.4498992,19.9223482 Z"></path>
                            </g>
                        </g>
                    </g>
                </g>
            </g>
        </g>
    </g>
</svg>