<?xml version="1.0" encoding="UTF-8"?>
<svg width="30px" height="35px" viewBox="0 0 30 35" version="1.1" xmlns="http://www.w3.org/2000/svg" xmlns:xlink="http://www.w3.org/1999/xlink">
    <!-- Generator: sketchtool 51.3 (57544) - http://www.bohemiancoding.com/sketch -->
    <title>9D834270-D84D-418F-842E-D6C7525F22E4</title>
    <desc>Created with sketchtool.</desc>
    <defs></defs>
    <g id="Page-1" stroke="none" stroke-width="1" fill="none" fill-rule="evenodd">
        <g id="Kear---Medical-Landing-Page" transform="translate(-545.000000, -1228.000000)" fill="#0070CD" fill-rule="nonzero">
            <g id="Our-Speciality" transform="translate(0.000000, 900.000000)">
                <g id="Content" transform="translate(375.000000, 255.000000)">
                    <g id="1">
                        <g id="Icon" transform="translate(145.000000, 50.000000)">
                            <g id="Shape" transform="translate(25.000000, 23.000000)">
                                <path d="M20.7917131,18.4087263 C15.7139369,18.4087263 11.5830776,14.3608747 11.5830776,9.38563757 L13.011649,9.38563757 C13.011649,13.5733469 16.5018136,16.9801549 20.7917131,16.9801549 C25.0816126,16.9801549 28.5714286,13.5733468 28.5714286,9.38563757 L30,9.38563757 C30,14.3608747 25.8691406,18.4087263 20.7917131,18.4087263 Z"></path>
                                <path d="M30,9.38563757 L28.5714286,9.38563757 L28.5714286,3.72052871 C28.5714286,3.28142436 28.1989397,2.9242815 27.7413504,2.9242815 L25.4248046,2.9242815 L25.4248046,1.49571007 L27.7413504,1.49571007 C28.9868164,1.49571007 30,2.4938965 30,3.72052871 L30,9.38563757 Z"></path>
                                <path d="M12.2973633,34.2708914 C7.21958707,34.2708914 3.08872771,30.2230399 3.08872771,25.2478027 L4.51729914,25.2478027 C4.51729914,29.435512 8.00746379,32.84232 12.2973633,32.84232 C16.5872628,32.84232 20.0774274,29.4355119 20.0774274,25.2478027 L21.5059989,25.2478027 C21.5059989,30.2230399 17.3751395,34.2708914 12.2973633,34.2708914 Z"></path>
                                <rect id="Rectangle-path" x="20.0774274" y="18.072161" width="1.42857143" height="7.17564171"></rect>
                                <rect id="Rectangle-path" x="3.08872771" y="19.5826939" width="1.42857143" height="5.66510879"></rect>
                                <path d="M13.011649,9.38563757 L11.5830776,9.38563757 L11.5830776,3.72052871 C11.5830776,2.49389643 12.5962611,1.49571007 13.8417271,1.49571007 L16.1582729,1.49571007 L16.1582729,2.9242815 L13.8417271,2.9242815 C13.3841379,2.9242815 13.011649,3.28142436 13.011649,3.72052871 L13.011649,9.38563757 Z"></path>
                                <path d="M16.4285714,4.36715264 C16.0341099,4.36715264 15.7142857,4.04732843 15.7142857,3.65286693 L15.7142857,0.729108571 C15.7142857,0.334647071 16.0341099,0.0148228571 16.4285714,0.0148228571 C16.8230329,0.0148228571 17.1428571,0.334647071 17.1428571,0.729108571 L17.1428571,3.65286693 C17.1428571,4.04732843 16.8230329,4.36715264 16.4285714,4.36715264 Z"></path>
                                <path d="M25,4.36715264 C24.6055385,4.36715264 24.2857143,4.04732843 24.2857143,3.65286693 L24.2857143,0.788748571 C24.2857143,0.394287071 24.6055385,0.0744628571 25,0.0744628571 C25.3944615,0.0744628571 25.7142857,0.394287071 25.7142857,0.788748571 L25.7142857,3.65286686 C25.7142857,4.04732843 25.3944615,4.36715264 25,4.36715264 Z"></path>
                                <path d="M3.80301343,20.2969796 C1.70619421,20.2969796 0,18.6211286 0,16.5612793 C0,14.5014299 1.70619421,12.8255789 3.80301343,12.8255789 C5.90018143,12.8255789 7.60637557,14.5014299 7.60637557,16.5612793 C7.60637557,18.6211286 5.90018136,20.2969796 3.80301343,20.2969796 Z M3.80301343,14.2541504 C2.49372207,14.2541504 1.42857143,15.2889579 1.42857143,16.5612793 C1.42857143,17.8336007 2.49372207,18.8684082 3.80301343,18.8684082 C5.11230479,18.8684082 6.17780414,17.8336007 6.17780414,16.5612793 C6.17780414,15.2889579 5.11230471,14.2541504 3.80301343,14.2541504 Z"></path>
                            </g>
                        </g>
                    </g>
                </g>
            </g>
        </g>
    </g>
</svg>