<?xml version="1.0" encoding="UTF-8"?>
<svg width="40px" height="30px" viewBox="0 0 40 30" version="1.1" xmlns="http://www.w3.org/2000/svg" xmlns:xlink="http://www.w3.org/1999/xlink">
    <!-- Generator: sketchtool 51.3 (57544) - http://www.bohemiancoding.com/sketch -->
    <title>1E97E624-CE48-4A98-A528-246141C3C47F</title>
    <desc>Created with sketchtool.</desc>
    <defs></defs>
    <g id="Page-1" stroke="none" stroke-width="1" fill="none" fill-rule="evenodd">
        <g id="Kear---Medical-Landing-Page" transform="translate(-540.000000, -1582.000000)" fill="#0070CD" fill-rule="nonzero">
            <g id="Our-Speciality" transform="translate(0.000000, 900.000000)">
                <g id="Content" transform="translate(375.000000, 255.000000)">
                    <g id="4" transform="translate(0.000000, 351.000000)">
                        <g id="Icon" transform="translate(145.000000, 50.000000)">
                            <g id="Shape" transform="translate(20.000000, 26.000000)">
                                <path d="M20.0044759,30 C19.8645019,30 19.7241211,29.9650065 19.5979817,29.8942057 C14.8339843,27.2306315 8.65152917,22.561849 6.25284825,15.4410807 C4.08447258,9.00227867 4.7757975,3.95182292 8.149414,1.58203125 C10.0105794,0.275065083 12.3254394,0 12.7038574,0 C15.3963216,0 17.9638672,0.8325195 20.0105794,2.35758467 C22.0564778,0.8325195 24.6166992,0 27.2961426,0 C27.6749674,0 29.9906412,0.275065083 31.8526204,1.58203125 C35.2290852,3.9534505 35.9212239,9.00634767 33.7524414,15.4459636 C31.3541667,22.5651042 25.1737467,27.2322591 20.4109701,29.8942057 C20.2848307,29.9650065 20.1444498,30 20.0044759,30 Z M12.7038574,1.66666667 C12.6961263,1.6674805 10.7027181,1.82535808 9.10725833,2.94596358 C5.23600183,5.66487633 6.92586183,12.2176107 7.83243733,14.9088542 C9.99511633,21.3289389 15.5578613,25.6551107 20.0044759,28.2088217 C24.4494629,25.6567383 30.0109863,21.3321941 32.1728516,14.913737 C33.0794271,12.2216797 34.7701009,5.66731775 30.8947754,2.94596358 C29.3001302,1.82617192 27.3034668,1.6674805 27.2843424,1.66666667 C24.769694,1.66666667 22.3734537,2.51546225 20.5485026,4.05761717 C20.2376302,4.31966142 19.7835286,4.31966142 19.4726562,4.05761717 C17.648112,2.51546225 15.2445475,1.66666667 12.7038574,1.66666667 Z"></path>
                                <path d="M21.6691081,23.3341472 C21.6113282,23.3341472 21.5531412,23.3284506 21.4953613,23.3154298 C21.1730957,23.2470703 20.9216308,22.9947918 20.8536784,22.6725261 L17.8181967,8.25439458 L10.5598959,14.7867839 C10.4069011,14.9243165 10.2083334,15.0008138 10.0024415,15.0008138 L0.835773917,15.0008138 C0.375568833,15.0008138 0.00244058333,14.6280925 0.00244058333,14.1674805 C0.00244058333,13.7068685 0.375568833,13.3341472 0.835773917,13.3341472 L9.68261633,13.3341472 L17.7783202,6.04817708 C18.0004882,5.84879558 18.3121744,5.78613283 18.5941568,5.87483725 C18.87736,5.96761067 19.0897623,6.20442708 19.1512043,6.49576825 L22.0975747,20.4915365 L27.6615396,12.8263347 C27.8181965,12.6098633 28.0688475,12.4820964 28.3357746,12.4820964 C28.3361815,12.4820964 28.3365884,12.4820964 28.3369952,12.4820964 L39.1609698,12.5008138 C39.6211749,12.5016277 39.9983722,12.8751628 39.9975584,13.3357747 C39.9967446,13.7955729 39.6284992,14.1674805 39.1691079,14.1674805 C39.168701,14.1674805 39.1682941,14.1674805 39.1674803,14.1674805 L28.7601725,14.1495768 L22.34375,22.9899088 C22.1846517,23.2088216 21.9327799,23.3341472 21.6691081,23.3341472 Z"></path>
                            </g>
                        </g>
                    </g>
                </g>
            </g>
        </g>
    </g>
</svg>