<?xml version="1.0" encoding="UTF-8"?>
<svg width="25px" height="34px" viewBox="0 0 25 34" version="1.1" xmlns="http://www.w3.org/2000/svg" xmlns:xlink="http://www.w3.org/1999/xlink">
    <!-- Generator: sketchtool 51.3 (57544) - http://www.bohemiancoding.com/sketch -->
    <title>C89ABF7C-29D9-40B5-BE76-A36F231A9866</title>
    <desc>Created with sketchtool.</desc>
    <defs></defs>
    <g id="Page-1" stroke="none" stroke-width="1" fill="none" fill-rule="evenodd">
        <g id="Kear---Medical-Landing-Page" transform="translate(-948.000000, -1579.000000)" fill="#0070CD" fill-rule="nonzero">
            <g id="Our-Speciality" transform="translate(0.000000, 900.000000)">
                <g id="Content" transform="translate(375.000000, 255.000000)">
                    <g id="5" transform="translate(400.000000, 351.000000)">
                        <g id="Icon" transform="translate(145.000000, 50.000000)">
                            <g id="Shape" transform="translate(28.000000, 23.000000)">
                                <path d="M20.1388889,34.0281937 C17.4584283,34.0281937 15.2777778,31.8475432 15.2777778,29.1670826 C15.2777778,26.4866219 17.4584283,24.3059715 20.1388889,24.3059715 C22.8193495,24.3059715 25,26.4866219 25,29.1670826 C25,31.8475432 22.8193495,34.0281937 20.1388889,34.0281937 Z M20.1388889,25.6948603 C18.2244195,25.6948603 16.6666667,27.2526132 16.6666667,29.1670826 C16.6666667,31.0815519 18.2244195,32.6393048 20.1388889,32.6393048 C22.0533583,32.6393048 23.6111111,31.0815519 23.6111111,29.1670826 C23.6111111,27.2526132 22.0533583,25.6948603 20.1388889,25.6948603 Z"></path>
                                <path d="M4.86111111,34.0281937 C2.18065049,34.0281937 0,31.8475432 0,29.1670826 C0,26.4866219 2.18065049,24.3059715 4.86111111,24.3059715 C7.54157174,24.3059715 9.72222222,26.4866219 9.72222222,29.1670826 C9.72222222,31.8475432 7.54157174,34.0281937 4.86111111,34.0281937 Z M4.86111111,25.6948603 C2.94664174,25.6948603 1.38888889,27.2526132 1.38888889,29.1670826 C1.38888889,31.0815519 2.94664174,32.6393048 4.86111111,32.6393048 C6.77558049,32.6393048 8.33333333,31.0815519 8.33333333,29.1670826 C8.33333333,27.2526132 6.77558049,25.6948603 4.86111111,25.6948603 Z"></path>
                                <path d="M16.2601047,31.3602792 C15.9552681,31.3602792 15.6758626,31.158185 15.5910916,30.8499574 L7.51987035,1.57376528 C7.41780597,1.20416347 7.63481986,0.821676528 8.00476076,0.71995125 C8.3747016,0.615852431 8.75684951,0.834900764 8.85857479,1.20484167 L16.929796,30.4810325 C17.0318604,30.8506343 16.8148465,31.2331212 16.4449056,31.3348465 C16.3831923,31.3521412 16.3211399,31.3602792 16.2601047,31.3602792 Z"></path>
                                <path d="M8.55373806,31.8075313 C8.47540958,31.8075313 8.39572479,31.7939678 8.31773542,31.7658239 C7.95694979,31.6356156 7.77045354,31.2375307 7.90066188,30.8767451 L18.6384413,1.1533009 C18.7683106,0.79217625 19.1660563,0.606019028 19.5275201,0.736227361 C19.8883057,0.866435694 20.0748019,1.26452056 19.9445936,1.62530611 L9.20681424,31.3487503 C9.10474986,31.6315465 8.83789062,31.8075313 8.55373806,31.8075313 Z"></path>
                            </g>
                        </g>
                    </g>
                </g>
            </g>
        </g>
    </g>
</svg>