<?xml version="1.0" encoding="UTF-8"?>
<svg width="40px" height="46px" viewBox="0 0 40 46" version="1.1" xmlns="http://www.w3.org/2000/svg" xmlns:xlink="http://www.w3.org/1999/xlink">
    <!-- Generator: sketchtool 51.3 (57544) - http://www.bohemiancoding.com/sketch -->
    <title>3995838E-61F6-4B40-8D15-D95C6D5CFF4E</title>
    <desc>Created with sketchtool.</desc>
    <defs></defs>
    <g id="Page-1" stroke="none" stroke-width="1" fill="none" fill-rule="evenodd">
        <g id="Kear---Medical-Landing-Page" transform="translate(-375.000000, -2287.000000)" fill="#0070CD" fill-rule="nonzero">
            <g id="About-Us" transform="translate(0.000000, 1947.000000)">
                <g id="Content" transform="translate(375.000000, 333.000000)">
                    <g id="1">
                        <g id="Icon" transform="translate(0.000000, 7.000000)">
                            <g id="Group" transform="translate(0.000000, 8.571429)">
                                <path d="M20.2613468,13.5295759 C18.3086868,13.5295759 16.3718378,12.7283296 14.763765,11.2472098 C12.8655134,9.49916295 11.6982888,7.06798733 11.6410901,4.74423362 C11.6052828,3.5016741 11.9005767,2.18377971 12.4948848,0.937034952 C12.6529949,0.605933714 12.9873512,0.394810286 13.3547248,0.394810286 L26.4550781,0.394810286 C26.8047805,0.394810286 27.126581,0.586402571 27.2930617,0.894252286 C28.0138578,2.22842267 28.3826265,3.6532739 28.359375,5.0162761 C28.3100818,8.82347476 25.141369,13.2505581 20.6705729,13.5174851 C20.5343192,13.5253907 20.3976005,13.5295759 20.2613468,13.5295759 Z M13.9811198,2.29957219 C13.672805,3.10407371 13.5230655,3.92206105 13.5449219,4.69354543 C13.5890997,6.48856029 14.5507812,8.46121657 16.0542225,9.84654019 C17.3916481,11.078404 18.9927455,11.7089844 20.5589658,11.6159785 C23.8876489,11.4174108 26.4174108,7.9534041 26.4546131,4.98930438 C26.4546131,4.98790933 26.4546131,4.98651419 26.4546131,4.9846541 C26.4699591,4.11179324 26.2667411,3.19335943 25.8644904,2.29957229 L13.9811198,2.29957229 Z" id="Shape"></path>
                                <path d="M39.047619,37.1428571 L0.952380952,37.1428571 C0.426432286,37.1428571 0,36.7164249 0,36.1904762 L0,28.1143043 C0.123232857,26.609468 0.623604952,23.845331 2.62416295,21.3420759 C2.71019343,21.234654 2.84086686,21.0709635 3.01804314,20.8658854 C4.43126857,19.2243304 6.44438248,18.0696614 9.171782,17.3372396 C19.249442,14.6303013 30.3766741,17.7669271 30.8454241,17.9022508 C32.7320498,18.4449405 34.7260974,19.1276042 36.546689,20.9458706 C39.0225074,23.4202939 39.7670201,26.4150856 39.9902344,27.9799108 C39.9967448,28.0240886 40,28.0691965 40,28.1143043 L40,36.1904762 C40,36.7164249 39.5735677,37.1428571 39.047619,37.1428571 Z M1.90429686,35.2380952 L38.0952381,35.2380952 L38.0952381,28.1835937 C37.8943452,26.8368675 37.2516741,24.3433779 35.1999628,22.2935268 C33.8411458,20.9356398 32.3814173,20.3264509 30.3190104,19.7326079 C30.2092633,19.7005209 19.2206101,16.6108631 9.66564352,19.1768973 C7.31956838,19.8070127 5.61709438,20.765904 4.46103038,22.10891 C4.30431533,22.2907367 4.188988,22.4353609 4.11876848,22.5227865 C2.4260601,24.640997 2.0033481,26.984747 1.90150657,28.1942894 L1.90429686,35.2380952 Z" id="Shape"></path>
                                <path d="M23.6858259,18.249163 C21.7885045,16.093285 21.3802084,13.000837 21.3806729,12.3507254 L23.2854352,12.3525855 C23.2849702,12.749721 23.6211868,15.2925037 25.1153273,16.9907924 L23.6858259,18.249163 Z" id="Shape"></path>
                                <path d="M17.65625,17.6818267 L16.0853794,16.6038877 C17.1205357,15.0962612 17.3888578,13.1101191 17.3642112,12.7385603 L19.2606026,12.5599889 C19.3205915,13.1859189 19.0425037,15.6617373 17.65625,17.6818267 Z" id="Shape"></path>
                                <rect id="Rectangle-path" x="7.40838914" y="26.1030506" width="1.9047619" height="6.72479543"></rect>
                                <rect id="Rectangle-path" x="5.1860119" y="28.5132998" width="6.34905133" height="1.9047619"></rect>
                            </g>
                            <path d="M29.5233445,10.8710008 L10.4766555,10.8710008 C10.2046131,10.8710008 9.94559152,10.7547433 9.76469495,10.5515253 C9.58426343,10.3478423 9.49916295,10.077195 9.53078495,9.80701267 L10.5887276,0.84077381 C10.6454613,0.361328095 11.0518973,0 11.5345982,0 L28.4654018,0 C28.9481027,0 29.3545388,0.361328095 29.4112724,0.84077381 L30.469215,9.80701267 C30.500837,10.077195 30.4157367,10.3478423 30.235305,10.5515253 C30.0544085,10.7547433 29.795387,10.8710008 29.5233445,10.8710008 Z M11.5480841,8.96623886 L28.4519159,8.96623886 L27.6185826,1.9047619 L12.3814174,1.9047619 L11.5480841,8.96623886 Z" id="Shape"></path>
                            <rect id="Rectangle-path" transform="translate(17.354680, 35.340866) rotate(-15.684148) translate(-17.354680, -35.340866) " x="16.402141" y="25.5554844" width="1.90507891" height="19.5707635"></rect>
                            <rect id="Rectangle-path" transform="translate(23.017578, 35.467123) rotate(-72.025107) translate(-23.017578, -35.467123) " x="13.2452322" y="34.5147618" width="19.5446915" height="1.90472183"></rect>
                        </g>
                    </g>
                </g>
            </g>
        </g>
    </g>
</svg>