<?xml version="1.0" encoding="UTF-8"?>
<svg width="26px" height="26px" viewBox="0 0 26 26" version="1.1" xmlns="http://www.w3.org/2000/svg" xmlns:xlink="http://www.w3.org/1999/xlink">
    <!-- Generator: sketchtool 51.3 (57544) - http://www.bohemiancoding.com/sketch -->
    <title>DD4FFB53-2A0A-4EAC-B2C0-BC44F706030E</title>
    <desc>Created with sketchtool.</desc>
    <defs></defs>
    <g id="Page-1" stroke="none" stroke-width="1" fill="none" fill-rule="evenodd">
        <g id="Kear---Medical-Landing-Page" transform="translate(-1347.000000, -4999.000000)" fill="#0070CD" fill-rule="nonzero">
            <g id="Footer" transform="translate(0.000000, 4877.000000)">
                <g id="Opening-Time" transform="translate(1276.000000, 100.000000)">
                    <g id="Icon" transform="translate(49.000000, 0.000000)">
                        <path d="M34.795,22 C27.729,22 22,27.729 22,34.795 C22,41.861 27.729,47.59 34.795,47.59 C41.861,47.59 47.59,41.861 47.59,34.795 C47.59,27.729 41.861,22 34.795,22 Z M34.795,46.524 C28.328,46.524 23.066,41.263 23.066,34.795 C23.066,28.327 28.327,23.066 34.795,23.066 C41.263,23.066 46.524,28.327 46.524,34.795 C46.524,41.262 41.263,46.524 34.795,46.524 Z M34.795,35.861 L28.397,35.861 L28.397,36.927 L35.861,36.927 L35.861,26.308 L34.795,26.308 L34.795,35.861 Z" id="Shape"></path>
                    </g>
                </g>
            </g>
        </g>
    </g>
</svg>