<?xml version="1.0" encoding="UTF-8"?>
<svg width="25px" height="29px" viewBox="0 0 25 29" version="1.1" xmlns="http://www.w3.org/2000/svg" xmlns:xlink="http://www.w3.org/1999/xlink">
    <!-- Generator: sketchtool 51.3 (57544) - http://www.bohemiancoding.com/sketch -->
    <title>70810D99-B603-425A-BCD1-40F314893B4F</title>
    <desc>Created with sketchtool.</desc>
    <defs></defs>
    <g id="Page-1" stroke="none" stroke-width="1" fill="none" fill-rule="evenodd">
        <g id="Kear---Medical-Landing-Page" transform="translate(-548.000000, -4998.000000)" fill="#0070CD" fill-rule="nonzero">
            <g id="Footer" transform="translate(0.000000, 4877.000000)">
                <g id="Phone" transform="translate(502.000000, 100.000000)">
                    <g id="Icon" transform="translate(23.000000, 0.000000)">
                        <path d="M42.6221154,49.2634615 C40.2846154,49.2634615 34.6019231,46.2740385 29.8307692,39.8567308 C25.3682692,33.8548077 23.1980769,29.5192308 23.1980769,26.6019231 C23.1980769,24.3048077 24.7846154,23.2086538 25.6365385,22.6192308 L25.8471154,22.4721154 C26.7884615,21.7990385 28.2528846,21.5807692 28.8144231,21.5807692 C29.7990385,21.5807692 30.2134615,22.1567308 30.4644231,22.6586538 C30.6778846,23.0836538 32.4461538,26.8798077 32.625,27.3519231 C32.9,28.0778846 32.8096154,29.1355769 31.9596154,29.7442308 L31.8105769,29.8480769 C31.3884615,30.1403846 30.6038462,30.6836538 30.4951923,31.3451923 C30.4423077,31.6663462 30.55,32.0028846 30.8240385,32.3721154 C32.1923077,34.2163462 36.5625,39.6317308 37.35,40.3663462 C37.9673077,40.9432692 38.7490385,41.025 39.2817308,40.5759615 C39.8326923,40.1115385 40.0778846,39.8375 40.0798077,39.8336538 L40.1365385,39.7788462 C40.1826923,39.7394231 40.6134615,39.3980769 41.3173077,39.3980769 C41.825,39.3980769 42.3413462,39.5730769 42.8519231,39.9182692 C44.1769231,40.8134615 47.1663462,42.8134615 47.1663462,42.8134615 L47.2144231,42.85 C47.5971154,43.1778846 48.15,44.1221154 47.5048077,45.3509615 C46.8365385,46.6269231 44.7644231,49.2605769 42.6211538,49.2605769 L42.6221154,49.2634615 Z M28.8134615,22.6076923 C28.3278846,22.6076923 27.1346154,22.8125 26.4423077,23.3076923 L26.2192308,23.4634615 C25.4240385,24.0134615 24.2230769,24.8432692 24.2230769,26.6028846 C24.2230769,29.2923077 26.3269231,33.4278846 30.6528846,39.2461538 C35.3778846,45.6009615 40.7798077,48.2394231 42.6211538,48.2394231 C44.1875,48.2394231 45.9836538,46.0509615 46.5971154,44.8798077 C46.9740385,44.1605769 46.6653846,43.7548077 46.5586538,43.6451923 C46.2125,43.4134615 43.5163462,41.6096154 42.2769231,40.7721154 C41.9394231,40.5432692 41.6153846,40.4278846 41.3163462,40.4278846 C41.0442308,40.4278846 40.8653846,40.5240385 40.8048077,40.5625 C40.7048077,40.6692308 40.4298077,40.9519231 39.9403846,41.3634615 C39.0259615,42.1336538 37.6346154,42.0403846 36.6480769,41.1192308 C35.7605769,40.2903846 31.2778846,34.7096154 29.9980769,32.9855769 C29.5557692,32.3894231 29.3817308,31.7817308 29.4807692,31.1807692 C29.6605769,30.0913462 30.6778846,29.3865385 31.2240385,29.0076923 L31.3605769,28.9125 C31.8490385,28.5634615 31.7451923,27.9317308 31.6644231,27.7182692 C31.5134615,27.3201923 29.7673077,23.5625 29.5461538,23.1211538 C29.3653846,22.7596154 29.2230769,22.6086538 28.8115385,22.6086538 L28.8134615,22.6076923 Z" id="Shape"></path>
                    </g>
                </g>
            </g>
        </g>
    </g>
</svg>