<?xml version="1.0" encoding="UTF-8"?>
<svg width="23px" height="27px" viewBox="0 0 23 27" version="1.1" xmlns="http://www.w3.org/2000/svg" xmlns:xlink="http://www.w3.org/1999/xlink">
    <!-- Generator: sketchtool 51.3 (57544) - http://www.bohemiancoding.com/sketch -->
    <title>9ED7591F-0A0E-4559-B9ED-34C73DA62DA7</title>
    <desc>Created with sketchtool.</desc>
    <defs></defs>
    <g id="Page-1" stroke="none" stroke-width="1" fill="none" fill-rule="evenodd">
        <g id="Kear---Medical-Landing-Page" transform="translate(-949.000000, -4998.000000)" fill="#0070CD" fill-rule="nonzero">
            <g id="Footer" transform="translate(0.000000, 4877.000000)">
                <g id="Address" transform="translate(886.000000, 100.000000)">
                    <g id="Icon" transform="translate(39.000000, 0.000000)">
                        <path d="M38.9992663,35.7498879 L35.9992255,34.0501773 L35.9992255,27.9497819 C37.6989361,27.699466 38.9992663,26.2500713 38.9992663,24.4997351 C38.9992663,22.5497086 37.4495577,21 35.4995312,21 C33.5495047,21 31.9997962,22.5497086 31.9997962,24.4997351 C31.9997962,26.2500713 33.3001264,27.699466 34.999837,27.9497819 L34.999837,33.4501692 L31.9997962,31.7504586 L24,35.0008152 L24,47.2512942 L31.9997962,44.0009375 L39.0002038,48.0013044 L47,44.0009375 L47,31.7504586 L39.0002038,35.7508254 L38.9992663,35.7498879 Z M30.9994701,43.3503037 L24.9993886,45.7503363 L24.9993886,35.6505116 L30.9994701,33.2007908 L30.9994701,43.3512412 L30.9994701,43.3503037 Z M32.9991848,24.4997351 C32.9991848,23.1000285 34.0988872,21.9993886 35.4995312,21.9993886 C36.9001753,21.9993886 37.9998777,23.099091 37.9998777,24.4997351 C37.9998777,25.8994416 36.9001753,27.0000815 35.4995312,27.0000815 C34.0988872,27.0000815 32.9991848,25.9003791 32.9991848,24.4997351 Z M38.9992663,46.9006644 L31.9988587,42.9002976 L31.9988587,32.8998492 L34.9988994,34.5995598 L34.9988994,38.9993071 L35.9992255,38.9993071 L35.9992255,35.1489422 L38.9992663,36.8486528 L38.9992663,46.8987894 L38.9992663,46.9006644 Z M45.9996739,43.3999918 L39.9995924,46.4000326 L39.9995924,36.3995842 L45.9996739,33.3995435 L45.9996739,43.3999918 Z" id="Shape"></path>
                    </g>
                </g>
            </g>
        </g>
    </g>
</svg>